<?xml version="1.0" encoding="utf-8"?>
<!-- Generator: Adobe Illustrator 16.0.2, SVG Export Plug-In . SVG Version: 6.00 Build 0)  -->
<!DOCTYPE svg PUBLIC "-//W3C//DTD SVG 1.1//EN" "http://www.w3.org/Graphics/SVG/1.1/DTD/svg11.dtd">
<svg version="1.1" id="Layer_1" xmlns="http://www.w3.org/2000/svg" xmlns:xlink="http://www.w3.org/1999/xlink" x="0px" y="0px"
	 width="212px" height="207px" viewBox="0 0 212 207" enable-background="new 0 0 212 207" xml:space="preserve">
<path fill="#010101" d="M124.432,170.555c0,0-0.223,0.459-0.594,1.688l-7.94,1.247c-0.174-1.168-0.51-1.622-1.393-1.622
	c-1.544,0-1.323,0.985-1.323,0.985s-1.654-0.547-1.985-0.658c-0.33-0.108-1.654-0.327-1.654-0.327s0.331,0.767-0.331,0.657
	c-0.662-0.11-0.882,0.875-1.654,0.328c-0.771-0.547-0.662-0.658-1.654-0.658s-1.323-1.75-2.316-0.984s-0.662,1.643-1.323,1.643
	c-0.662,0-1.434-0.658-1.654,0.328c-0.181,0.807-1.674,0.53-2.155,1.297l-11.306,1.316c-4.551-6.648-4.244-14.188-4.407-19.031
	c0.497-18.879,19.191-21.013,22.17-21.013c15.055,0,17.052,6.142,18.859,9.208c4.006,6.885,2.316,24.281,2.316,24.281
	L124.432,170.555z"/>
<path fill="#010101" d="M88.696,82.561c0,0-17.536,3.283-17.536,17.073c0,3.776-0.993,20.684,32.095,22.655
	c11.912-0.328,33.419-1.971,49.302-26.595c-4.798-0.164-20.515-2.298-34.081-7.552C104.413,83.874,102.097,81.247,88.696,82.561z"/>
<path fill="#010101" d="M87.23,178.936l10.932-0.692c-0.056,0.073-0.121,0.139-0.201,0.192c-0.662,0.437-3.75,2.955-3.97,3.939
	c-0.222,0.984-0.883,1.531-1.324,2.626s-0.551,2.519,0.331,2.627s20.073,1.642,20.515,1.642c1.64,0,3.419-4.705,2.647-11.82
	c-0.02-0.352-0.033-0.655-0.047-0.969l6.905-1.084c-0.078,0.344-0.156,0.678-0.241,1.068c-0.661,5.581,0.166,10.999,0.331,12.805
	c0.166,1.807,1.985,2.955,1.985,2.955s2.15,3.119,2.316,4.269c0.165,1.149-1.82,0.163-2.647-0.657
	c-0.828-0.82-1.654-1.971-1.654-1.971s-1.323,1.15-3.31,1.971c-1.984,0.82-2.812-0.984-5.625,0
	c-2.812,0.986-4.301,0.493-7.609,0.657c-3.31,0.163-3.475,1.149-4.633,0.985c-1.157-0.164-2.813,0.492-1.985-0.985
	c0.828-1.478,4.302-3.94,4.302-3.94s-3.64-0.164-5.294-0.656c-1.655-0.492-4.302-1.313-4.302-1.313s-2.15,0.328-3.64,0.328
	c-1.488,0-0.662,0.165-1.654,4.269c-1.489,4.432,0.497,4.432,3.64,6.238c4.301,1.807,4.963,3.939,4.963,3.939
	s-5.459,0.494-7.61-2.297c-2.15-2.791-4.633-1.479-5.625,1.313c-0.661,2.627-3.64,0-6.948,0c-3.31,0-3.144,1.314-5.294,1.314
	c-2.151,0-3.475,0-4.633,0.328c-1.157,0.328-1.157,0-3.309,0.984c1.489-5.746,6.949-4.268,6.949-4.268l-1.986-0.985
	c0,0-0.992-0.165-2.646-0.657s-1.985-0.328-3.641-0.328c-1.653,0-2.149,1.313-3.639-0.656c-1.489-1.971-0.331-1.971,0.661-2.627
	c0.993-0.656,8.603,0,10.92,0c2.315,0,1.323-0.822,1.984-0.656c0.662,0.164,3.31,0.656,3.31,0.656s0.827-0.328,2.978-2.627
	s6.286-10.67,6.617-11.82C86.251,182.331,86.879,180.596,87.23,178.936z"/>
<path fill="#010101" d="M101.597,79.76C89.514,77.22,77.7,78.17,70.498,91.097c-2.647-4.432-10.258-16.581-17.206-20.685
	c4.963-4.104,10.919-8.372,11.912-10.507c1.158-0.82,1.323-0.656,1.323-0.656s7.609,6.074,15.552,4.925
	c7.94-1.149,14.062-1.97,20.514,0.328c0.942,0.336,1.876,0.704,2.801,1.085L101.597,79.76z"/>
<path fill="#010101" d="M147.925,92.739c-3.475-0.821-9.265-0.985-26.471-6.895c-5.303-1.822-11.109-3.938-16.933-5.406
	l3.661-13.669c4.365,1.884,8.445,3.662,11.947,3.315c4.964-0.493,11.912-1.806,13.897-1.642s5.295,0.657,5.295,0.657
	S137.832,79.441,147.925,92.739z"/>
<path fill="#010101" d="M22.465,47.936c9.311-2.044,21.716-5.977,30.415-13.297c4.536,9.413,9.9,20.567,10.669,22.311
	C44.193,80.098,20.204,74.024,20.204,74.024c-0.331-1.478,0.165-9.522,0.992-14.119C21.864,56.195,22.316,50.136,22.465,47.936z"/>
<path fill="#010101" d="M68.843,94.381c0,0-4.963,12.805,6.618,22.327c-0.662,4.925-2.243,19.3-13.243,31.177
	c-3.639-1.971-6.278-3.597-6.278-3.597s-2.813,0.164-3.972-1.642c-1.158-1.807-6.452-3.283-9.264-5.91
	c-2.813-2.627-7.776-3.283-9.265-7.553c-1.489-4.268,0.164-1.97-4.303-9.193c-4.467-7.223-6.286-15.432-6.947-18.715
	c-0.662-3.284-2.647-7.387-2.647-14.446s0.331-9.522,0.331-9.522s12.408,3.94,30.441-5.581
	C55.774,76.979,67.52,89.456,68.843,94.381z"/>
<path fill="#010101" d="M24.595,83c0,0,0.8,24.801,10,38c3.4,5.801,4.2,7,5,8s13.2,8,17,10s10-6,12-17c-1-7.801-11.2-12.199-8-27
	c-3.6-9-11-16-11-16S33.395,85.4,24.595,83z"/>
<path fill="#010101" d="M104.595,133.125c-0.006,0-0.011-0.001-0.016-0.001c-14.56,0-27.466,10.325-24.984,28.876
	c1.324,6.566,1.815,9.555,1.815,9.555s-5.122-4.447-7.604-7.238s-7.941-12.82-9.265-13.805c1.985-3.119,10.472-11.601,14.053-30.512
	c0.414-0.082,9.469,6.389,26,5.244V133.125z"/>
<path fill="#010101" d="M22.52,44.464v-2.289c0,0-1.157-0.985-5.625-1.97c-6.121-0.821-6.286-7.223-5.955-9.193
	c-0.662,1.149-6.452,1.149-9.266,0.985c-0.827-3.448,4.798-7.552,5.294-8.537c0.497-0.985,0.993-4.597,0.993-5.253
	c0-0.657,1.654-1.642,1.654-1.642s0.828-0.492,1.324-1.313c0.495-0.821,0.661-1.642,0.661-1.642l0.33-1.313l0.993,0.328l0.662-1.313
	c0,0,0-3.119,0-3.612c0-0.493,0.496-3.119,0.993-1.642c-0.331,1.314,0.33,1.97,0.992,2.955c0.662,0.985,1.654,0.329,1.654,0.329
	s-0.331-4.27,0.661-6.239c-0.992,2.299,1.986,2.955,1.986,2.955s0-0.656,0-2.626c0-1.97,0.661-1.642,0.661-1.642l0.993,3.612
	l0.662-0.985c0,0,0.661-2.627,2.315-3.284c1.654-0.656,0.993,1.313,0.993,1.313l1.654-1.313c0,0,0.662,0.821,0.331,1.97
	S28.145,7.7,28.145,7.7s-1.819,2.463-1.654,2.955c14.394,1.313,19.025,9.029,20.846,12.477c0.892,1.854,2.319,4.815,3.966,8.231
	C46.4,35.863,37.535,41.58,22.52,44.464z"/>
<path fill="#010101" d="M172.41,126.887c0,1.148-0.497,2.791-2.979,2.955c-2.481,0.163-3.144,1.313-3.971,1.313
	s-2.316,0-2.316,0.656c0,0.658,2.316,1.971,0,2.299c-2.315,0.328-4.632,0.984-4.963,1.642s0.827,2.298,1.985,2.955
	s0.331,2.134,0.331,2.955s0.496,1.806-0.331,3.612c-0.827,1.806-4.963,2.791-5.294,3.611s-0.331,3.119-0.993,4.268
	c-0.662,1.15-3.639,2.955-5.625,4.598c-1.985,1.641-2.646,2.79-2.978,3.939c-0.33,1.149-2.15,1.642-2.979,1.642
	c-0.827,0,0,1.313-1.323,2.299s-2.646,0.819-3.309,1.313c-0.662,0.492-3.143,1.806-4.632,1.313
	c-1.489-0.492-1.489,0.164-1.986,0.984c-0.496,0.822-2.646,0-2.646,0s2.813-15.117-1.323-23.982
	c-3.833-8.216-7.398-11.477-19.484-12.059v-8.006c14.412-0.567,31.582-6.168,45.623-25.231c6.618,3.94,14.063,11.328,15.883,13.462
	c1.82,2.135,5.294,9.521,5.294,9.521S172.41,125.736,172.41,126.887z"/>
<path fill="#010101" d="M176.448,123.29c0,0-3.309-16.252-22.168-25.938c1.984-3.447,2.646-4.598,2.646-4.598l-6.947-0.327
	c0,0-9.762-15.433-8.936-23.312c5.625,0.328,10.92-0.658,12.242-0.986c1.324-0.328,5.791-0.492,6.619-0.984
	c0.826-0.492,2.646-1.148,5.955-1.314c3.309-0.164,6.783,0.494,8.271,0.33c1.49-0.164,20.02-10.835,29.779-8.538
	c4.303,1.313,5.129,3.448,1.324,4.924c-2.15-0.656-3.971,0,0,2.955s5.129,3.119,4.301,4.598c-0.826,1.477,0.662,1.148,1.656,2.626
	c0.992,1.478,1.158,3.12,0,2.956c-1.158-0.165-4.137,0.82-6.949,0.656s-5.295,3.447,0,4.27c3.475,0.655,5.129,1.805,3.971,2.297
	s-2.646,0.821-1.984,2.299c0.66,1.478,1.322,3.939,1.322,3.939s-2.15,0.984-3.309,1.314c-1.158,0.328,0.33,2.625,0.33,2.625
	s0.828,2.136-1.654,2.299c-2.48,0.164-3.473,1.314-5.293,4.597c-2.316,1.806-9.596,2.3-9.596,2.3s-1.158,1.641-1.654,2.297
	c-0.498,0.658-1.654,1.313,0.992,1.971c2.646,0.656,3.309,2.134,2.646,2.955c-0.66,0.82-2.979,4.104-4.301,5.254
	c-1.324,1.148-2.646,1.805-3.309,2.955c-0.662,1.148-1.324,3.283-1.324,3.283L176.448,123.29z"/>
</svg>
