<svg id="ok" xmlns="http://www.w3.org/2000/svg" width="40" height="40" viewBox="0 0 40 40">
  <defs>
    <style>
      .cls-1 {
        fill: #efefef;
        fill-rule: evenodd;
      }
    </style>
  </defs>
  <path class="cls-1" d="M20,40A20,20,0,1,1,40,20,20,20,0,0,1,20,40ZM20,2A18,18,0,1,0,38,20,18,18,0,0,0,20,2Z"/>
  <path class="ok" d="M25.337,22.612a9.212,9.212,0,0,1-2.849,1.179l2.747,2.738A1.436,1.436,0,1,1,23.2,28.557l-2.7-2.689-2.7,2.689a1.436,1.436,0,0,1-2.035-2.028l2.745-2.738a9.252,9.252,0,0,1-2.852-1.179,1.436,1.436,0,0,1,1.533-2.428,6.256,6.256,0,0,0,6.616,0A1.435,1.435,0,1,1,25.337,22.612ZM20.5,19.8a4.9,4.9,0,1,1,4.911-4.9A4.909,4.909,0,0,1,20.5,19.8Zm0-6.926A2.028,2.028,0,1,0,22.532,14.9,2.033,2.033,0,0,0,20.5,12.87Z"/>
</svg>
