<svg xmlns="http://www.w3.org/2000/svg" xmlns:xlink="http://www.w3.org/1999/xlink" width="35" height="38" viewBox="0 0 35 38">
  <metadata><?xpacket begin="﻿" id="W5M0MpCehiHzreSzNTczkc9d"?>
<x:xmpmeta xmlns:x="adobe:ns:meta/" x:xmptk="Adobe XMP Core 5.6-c138 79.159824, 2016/09/14-01:09:01        ">
   <rdf:RDF xmlns:rdf="http://www.w3.org/1999/02/22-rdf-syntax-ns#">
      <rdf:Description rdf:about=""/>
   </rdf:RDF>
</x:xmpmeta>
                                                                                                    
                                                                                                    
                                                                                                    
                                                                                                    
                                                                                                    
                                                                                                    
                                                                                                    
                                                                                                    
                                                                                                    
                                                                                                    
                                                                                                    
                                                                                                    
                                                                                                    
                                                                                                    
                                                                                                    
                                                                                                    
                                                                                                    
                                                                                                    
                                                                                                    
                                                                                                    
                           
<?xpacket end="w"?></metadata>
<defs>
    <style>
      .cls-1,.cls-3,.cls-4 {
        fill: #fff;
      }

      .cls-1 {
        stroke: #dcdcdc;
        filter: url(#filter);
      }

      .cls-1, .hovered-fill {
        stroke-linejoin: round;
        stroke-width: 1px;
      }

      .hovered-fill {
        stroke: #e6e6e6;
        fill:#f9b000;
      }

      .cls-3 {
        fill: #f9b000;
      }

      .cls-4 {
        fill-rule: evenodd;
      }
    </style>
    <filter id="filter" x="0.5" y="0.5" width="34" height="37" filterUnits="userSpaceOnUse">
      <feOffset result="offset" dy="2" in="SourceAlpha"/>
      <feGaussianBlur result="blur" stdDeviation="3.317"/>
      <feFlood result="flood" flood-color="#af9632"/>
      <feComposite result="composite" operator="in" in2="blur"/>
      <feBlend result="blend" in="SourceGraphic"/>
    </filter>
  </defs>
  <g style="fill: #fff; filter: url(#filter)">
    <rect id="rect" class="cls-1" x="10.5" y="8.5" width="13" height="16" style="stroke: inherit; filter: none; fill: inherit"/>
  </g>
  <use xlink:href="#rect" style="stroke: #dcdcdc; filter: none; fill: none"/>
  <rect class="hovered-fill" x="8.5" y="3.5" width="18" height="24"/>
  <rect class="cls-3" x="5.5" y="15.5" width="15" height="9"/>
  <path id="Xls" class="cls-4" d="M385.292,7547.16h-1.179l1.449,2.47-1.487,2.51h1.193l0.957-1.74,0.957,1.74h1.193l-1.487-2.51,1.449-2.47h-1.179l-0.933,1.72Zm4.625,0h-1.026v4.98h3.2v-0.82h-2.177v-4.16Zm5.14,4.09a0.952,0.952,0,0,1-.571.15,0.81,0.81,0,0,1-.984-0.83h-1.029a1.456,1.456,0,0,0,.248.85,1.619,1.619,0,0,0,.719.58,2.548,2.548,0,0,0,1.046.21,2.107,2.107,0,0,0,1.316-.37,1.186,1.186,0,0,0,.489-1.01,1.293,1.293,0,0,0-.4-0.97,3.153,3.153,0,0,0-1.275-.66,2.573,2.573,0,0,1-.719-0.3,0.489,0.489,0,0,1-.245-0.41,0.514,0.514,0,0,1,.209-0.42,0.986,0.986,0,0,1,.584-0.16,0.918,0.918,0,0,1,.605.19,0.683,0.683,0,0,1,.216.53h1.025a1.435,1.435,0,0,0-.231-0.8,1.543,1.543,0,0,0-.647-0.54,2.219,2.219,0,0,0-.951-0.19,2.43,2.43,0,0,0-.955.17,1.512,1.512,0,0,0-.653.5,1.2,1.2,0,0,0-.227.72,1.386,1.386,0,0,0,.848,1.23,4.9,4.9,0,0,0,.844.34,2.647,2.647,0,0,1,.738.33,0.514,0.514,0,0,1,.2.44A0.49,0.49,0,0,1,395.057,7551.25Z" transform="translate(-377.5 -7529.5)"/>
</svg>
