<svg xmlns="http://www.w3.org/2000/svg" width="38" height="32" viewBox="0 0 38 32">
  <defs>
    <style>
      .cls-1 {
        fill: #f9b000;
        stroke: #f9b000;
        stroke-linejoin: round;
        stroke-width: 1px;
        fill-rule: evenodd;
      }
    </style>
  </defs>
  <path id="Forma_1" data-name="Forma 1" class="cls-1" d="M366.555,605a8.765,8.765,0,0,1,0-17.524c4.712,0,14.129,3.787,14.129,8.761S371.267,605,366.555,605Zm0-16.531a7.77,7.77,0,0,0,0,15.536c4.333,0,13.159-3.6,13.159-7.768S370.888,588.469,366.555,588.469ZM386.8,601.731a3.24,3.24,0,0,1-3.2-3.156h-3.882a0.5,0.5,0,0,1,0-.993h4.4a0.483,0.483,0,0,1,.365.17,0.509,0.509,0,0,1,.116.393,2.172,2.172,0,0,0-.033.309,2.229,2.229,0,1,0,3.561-1.82,0.5,0.5,0,0,1,0-.792,2.287,2.287,0,0,0,.9-1.82,2.23,2.23,0,1,0-4.458,0,1.707,1.707,0,0,0,.024.249,0.568,0.568,0,0,1-.11.423,0.5,0.5,0,0,1-.362.2h-4.4a0.5,0.5,0,0,1,0-.993H383.6a3.2,3.2,0,1,1,6.4.122,3.308,3.308,0,0,0,0,4.432A3.242,3.242,0,0,1,386.8,601.731Zm-23.382-5.851a0.488,0.488,0,0,1-.466-0.634,4.322,4.322,0,0,1,2.628-3.093,0.483,0.483,0,0,1,.6.336,0.5,0.5,0,0,1-.325.615,3.378,3.378,0,0,0-1.973,2.418A0.489,0.489,0,0,1,363.419,595.88Zm8.728-10.42a0.48,0.48,0,0,1-.366-0.171,2.635,2.635,0,0,1,0-3.384,1.617,1.617,0,0,0,0-2.08,0.5,0.5,0,0,1,.047-0.7,0.473,0.473,0,0,1,.684.048,2.631,2.631,0,0,1,0,3.383,1.621,1.621,0,0,0,0,2.081,0.5,0.5,0,0,1-.046.7A0.478,0.478,0,0,1,372.147,585.46Zm-4.383,0a0.48,0.48,0,0,1-.366-0.171,2.635,2.635,0,0,1,0-3.384,1.617,1.617,0,0,0,0-2.08,0.5,0.5,0,0,1,.047-0.7,0.474,0.474,0,0,1,.684.048,2.631,2.631,0,0,1,0,3.383,1.621,1.621,0,0,0,0,2.081,0.5,0.5,0,0,1-.046.7A0.478,0.478,0,0,1,367.764,585.46Zm-4.383,0a0.48,0.48,0,0,1-.366-0.171,2.635,2.635,0,0,1,0-3.384,1.62,1.62,0,0,0,0-2.08,0.5,0.5,0,0,1,.047-0.7,0.474,0.474,0,0,1,.684.048,2.631,2.631,0,0,1,0,3.383,1.621,1.621,0,0,0,0,2.081,0.505,0.505,0,0,1-.046.7A0.478,0.478,0,0,1,363.381,585.46Z" transform="translate(-355 -576)"/>
</svg>
