<svg xmlns="http://www.w3.org/2000/svg" width="43" height="27" viewBox="0 0 43 27">
  <defs>
    <style>
      .cls-1 {
        fill: #fc0;
        stroke: #f9b000;
        stroke-linejoin: round;
        stroke-width: 1px;
        fill-rule: evenodd;
      }
    </style>
  </defs>
  <path id="Forma_1" data-name="Forma 1" class="cls-1" d="M913.353,602.255a0.5,0.5,0,0,1-.145-0.984c4.639-1.4,7.835-5.511,9.746-7.963a8.526,8.526,0,0,1,1.6-1.785,14.833,14.833,0,0,1,2.427-1.1c0.481-.185.979-0.374,1.493-0.6a0.862,0.862,0,0,0,.537-0.911,1.415,1.415,0,0,0-1.081-1.207c-0.516-.128-0.789.15-1.446,0.989a6.451,6.451,0,0,1-2.056,1.9c-0.875.464-2.5,0.391-4.549,0.3-3.127-.141-7.014-0.317-9.588,1.33a0.5,0.5,0,0,1-.69-0.154,0.505,0.505,0,0,1,.153-0.694c2.842-1.819,6.9-1.634,10.17-1.487,1.747,0.078,3.4.154,4.039-.182a5.577,5.577,0,0,0,1.735-1.633c0.632-.808,1.283-1.643,2.475-1.344a2.4,2.4,0,0,1,1.834,2.1,1.871,1.871,0,0,1-1.127,1.916c-0.531.236-1.046,0.434-1.543,0.624a14.208,14.208,0,0,0-2.269,1.023,10.278,10.278,0,0,0-1.322,1.543c-1.854,2.38-5.3,6.809-10.244,8.3A0.485,0.485,0,0,1,913.353,602.255Zm4.609-11.509a0.493,0.493,0,0,1-.286-0.091,0.5,0.5,0,0,1-.124-0.7,5.725,5.725,0,0,1,1.7-1.575,6.5,6.5,0,0,1,2.177-.721,8.134,8.134,0,0,0,1.785-.506,0.86,0.86,0,0,0,.537-0.909,1.414,1.414,0,0,0-1.08-1.207c-0.516-.13-0.791.15-1.448,0.99a6.488,6.488,0,0,1-2.055,1.9c-0.876.461-2.5,0.39-4.55,0.3-1.067-.049-2.276-0.1-3.477-0.08h-0.01a0.5,0.5,0,0,1-.01-1.006c1.237-.024,2.459.032,3.541,0.082,1.751,0.079,3.4.152,4.039-.182a5.579,5.579,0,0,0,1.735-1.634c0.631-.807,1.283-1.641,2.476-1.343a2.4,2.4,0,0,1,1.834,2.1,1.872,1.872,0,0,1-1.127,1.916,9.009,9.009,0,0,1-2,.572,5.587,5.587,0,0,0-1.858.6,4.676,4.676,0,0,0-1.4,1.289A0.5,0.5,0,0,1,917.962,590.746ZM917.8,605H900.284A7.314,7.314,0,0,1,893,597.679v-0.788a10.522,10.522,0,0,1,10.482-10.538h2.726a15.05,15.05,0,0,1,9.6,3.471,0.5,0.5,0,0,1,.067.708,0.5,0.5,0,0,1-.705.067,14.044,14.044,0,0,0-8.963-3.242H903.48A9.52,9.52,0,0,0,894,596.891v0.788a6.309,6.309,0,0,0,6.285,6.32H917.8a2.488,2.488,0,0,0,2.479-2.492,14.235,14.235,0,0,0-.562-3.972,0.5,0.5,0,1,1,.959-0.281,15.23,15.23,0,0,1,.6,4.253A3.491,3.491,0,0,1,917.8,605Z" transform="translate(-890 -581)"/>
</svg>
