<svg xmlns="http://www.w3.org/2000/svg" width="115.97" height="65" viewBox="0 0 115.97 65">
  <defs>
    <style>
      .cls-1 {
        fill: #fff;
        fill-rule: evenodd;
      }
    </style>
  </defs>
  <path id="Forma_1" data-name="Forma 1" class="cls-1" d="M1192.44,405.855c-1.66.732-3.27,1.345-4.83,1.933a44.714,44.714,0,0,0-7.12,3.166c-0.71.427-2.38,2.537-4.14,4.776a131.156,131.156,0,0,1-9.44,10.97,46.469,46.469,0,0,1,1.72,12.489,10.873,10.873,0,0,1-10.9,10.824h-54.9a22.784,22.784,0,0,1-22.84-22.672V424.9a32.778,32.778,0,0,1,32.86-32.619h8.54a47.545,47.545,0,0,1,15.09,2.474,1.621,1.621,0,0,1,.33-0.042c3.88-.075,7.71.1,11.1,0.252,5.49,0.246,10.67.47,12.66-.564a17.415,17.415,0,0,0,5.44-5.055c1.98-2.5,4.02-5.081,7.76-4.159a7.464,7.464,0,0,1,5.75,6.487,5.793,5.793,0,0,1-3.54,5.931,28.212,28.212,0,0,1-6.25,1.771,17.711,17.711,0,0,0-5.83,1.849,15.985,15.985,0,0,0-2.49,1.861c1,0.04,2,.082,2.96.125,5.48,0.243,10.67.477,12.66-.563a17.406,17.406,0,0,0,5.44-5.056c1.98-2.5,4.02-5.083,7.76-4.159a7.467,7.467,0,0,1,5.75,6.491A5.792,5.792,0,0,1,1192.44,405.855Zm-30.14-7.3a20.5,20.5,0,0,1,6.82-2.232,26.017,26.017,0,0,0,5.6-1.566,2.67,2.67,0,0,0,1.68-2.814,4.4,4.4,0,0,0-3.39-3.735c-1.62-.4-2.48.463-4.53,3.063a20.261,20.261,0,0,1-6.45,5.883c-2.74,1.429-7.83,1.208-14.26.919-1.26-.058-2.6-0.114-3.96-0.163a47.2,47.2,0,0,1,7.66,5.1c1.96-.076,3.91-0.084,5.84-0.049A18.056,18.056,0,0,1,1162.3,398.558Zm30.55,1.635a4.391,4.391,0,0,0-3.38-3.736c-1.62-.4-2.48.464-4.54,3.06a20.083,20.083,0,0,1-6.44,5.887c-2.74,1.435-7.83,1.211-14.26.918-9.8-.436-21.98-0.981-30.05,4.119a1.573,1.573,0,0,1-2.16-.477,1.545,1.545,0,0,1,.48-2.148c4.13-2.615,9.09-3.885,14.25-4.456a44.422,44.422,0,0,0-25.36-7.968h-8.54a29.651,29.651,0,0,0-29.72,29.509v2.44a19.652,19.652,0,0,0,19.7,19.559h54.9a7.752,7.752,0,0,0,7.77-7.711,43.792,43.792,0,0,0-1.17-9.965c-5.44,5.071-12.14,9.837-20.09,12.213a1.574,1.574,0,0,1-1.95-1.04,1.552,1.552,0,0,1,1.05-1.939c14.54-4.349,24.56-17.056,30.54-24.646,2.29-2.9,3.79-4.806,5-5.526a46.673,46.673,0,0,1,7.61-3.405c1.51-.573,3.07-1.158,4.68-1.871A2.646,2.646,0,0,0,1192.85,400.193Z" transform="translate(-1080 -385)"/>
</svg>
