<svg xmlns="http://www.w3.org/2000/svg" width="35" height="35" viewBox="0 0 35 35">
  <metadata><?xpacket begin="﻿" id="W5M0MpCehiHzreSzNTczkc9d"?>
<x:xmpmeta xmlns:x="adobe:ns:meta/" x:xmptk="Adobe XMP Core 5.6-c138 79.159824, 2016/09/14-01:09:01        ">
   <rdf:RDF xmlns:rdf="http://www.w3.org/1999/02/22-rdf-syntax-ns#">
      <rdf:Description rdf:about=""/>
   </rdf:RDF>
</x:xmpmeta>
                                                                                                    
                                                                                                    
                                                                                                    
                                                                                                    
                                                                                                    
                                                                                                    
                                                                                                    
                                                                                                    
                                                                                                    
                                                                                                    
                                                                                                    
                                                                                                    
                                                                                                    
                                                                                                    
                                                                                                    
                                                                                                    
                                                                                                    
                                                                                                    
                                                                                                    
                                                                                                    
                           
<?xpacket end="w"?></metadata>
<defs>
    <style>
      .cls-1 {
        fill: #fff;
        stroke: #e30613;
        stroke-linejoin: round;
        stroke-width: 2px;
      }

      .cls-2 {
        fill: #e30613;
        fill-rule: evenodd;
      }
    </style>
  </defs>
  <circle class="cls-1" cx="17.5" cy="17.5" r="16.5"/>
  <path class="cls-2" d="M695.564,645.832c-0.82,1.213-2.96,2.2-2.722-.286-4.96.027-2.419-4.631,0.209-4.891-2.59-.55-1.892-3.586,3.383-3.239A1.466,1.466,0,0,1,698.1,636a4.547,4.547,0,0,1,2.668.486,12.7,12.7,0,0,0-5.149,5.639c-0.669,1.338-1.148,3.141-.059,3.705m-0.024.408c-1.2,1.723-1.727,4.089-1.874,8.561,2.245-1.972,3.271-2.387,5.068-4.8-1.922-.44-2.7-1.769-3.194-3.762m4.512,0.44a1.369,1.369,0,1,0-1.18-1.355,1.279,1.279,0,0,0,1.18,1.355m-0.129,3.332c-4.565,4.654-2.192,10.065.819,9.994,3.2-.076,2.9-6.724.905-8.761,1.349-.089,2.582-1.141,2.323-3.545-1.257,2.2-2.526,2.45-4.047,2.312" transform="translate(-682 -631)"/>
</svg>
