<svg xmlns="http://www.w3.org/2000/svg" xmlns:xlink="http://www.w3.org/1999/xlink" width="35" height="38" viewBox="0 0 35 38">
  <defs>
    <style>
      .cls-1, .cls-2, .cls-4 {
        fill: #fff;
      }

      .cls-1 {
        stroke: #dcdcdc;
        filter: url(#filter);
      }

      .cls-1, .cls-2 {
        stroke-linejoin: round;
        stroke-width: 1px;
      }

      .cls-2 {
        stroke: #e6e6e6;
      }

      .cls-3 {
        fill: #00aeef;
      }

      .cls-4 {
        fill-rule: evenodd;
      }
    </style>
    <filter id="filter" x="0.5" y="0.5" width="34" height="37" filterUnits="userSpaceOnUse">
      <feOffset result="offset" dy="2" in="SourceAlpha"/>
      <feGaussianBlur result="blur" stdDeviation="3.317"/>
      <feFlood result="flood" flood-color="#0085b6"/>
      <feComposite result="composite" operator="in" in2="blur"/>
      <feBlend result="blend" in="SourceGraphic"/>
    </filter>
  </defs>
  <g style="fill: #fff; filter: url(#filter)">
    <rect id="Rectangle_61_copy" data-name="Rectangle 61 copy" class="cls-1" x="10.5" y="8.5" width="13" height="16" style="stroke: inherit; filter: none; fill: inherit"/>
  </g>
  <use xlink:href="#Rectangle_61_copy" style="stroke: #dcdcdc; filter: none; fill: none"/>
  <rect id="Rectangle_61_copy-2" data-name="Rectangle 61 copy" class="cls-2" x="8.5" y="3.5" width="18" height="24"/>
  <rect id="Rectangle_61_copy-3" data-name="Rectangle 61 copy" class="cls-3" x="5.5" y="15.5" width="15.719" height="9"/>
  <path id="doÑ" class="cls-4" d="M353.986,7552.14a2.3,2.3,0,0,0,1.172-.3,2.056,2.056,0,0,0,.805-0.84,2.6,2.6,0,0,0,.286-1.23v-0.23a2.591,2.591,0,0,0-.291-1.24,2.1,2.1,0,0,0-.808-0.84,2.3,2.3,0,0,0-1.174-.3h-1.532v4.98h1.542Zm-0.01-4.15a1.09,1.09,0,0,1,.919.4,1.792,1.792,0,0,1,.314,1.15v0.26a1.75,1.75,0,0,1-.324,1.12,1.1,1.1,0,0,1-.92.4H353.47v-3.33h0.506Zm7.106,1.55a2.972,2.972,0,0,0-.265-1.29,2,2,0,0,0-.749-0.86,2.252,2.252,0,0,0-2.211,0,2,2,0,0,0-.749.86,3.018,3.018,0,0,0-.265,1.3v0.24a2.942,2.942,0,0,0,.27,1.27,1.981,1.981,0,0,0,.752.85,2.191,2.191,0,0,0,2.213,0,1.96,1.96,0,0,0,.744-0.86,3.016,3.016,0,0,0,.26-1.29v-0.22Zm-1.04.24a2.093,2.093,0,0,1-.28,1.18,0.978,0.978,0,0,1-1.6-.01,2.141,2.141,0,0,1-.281-1.19v-0.24a2.083,2.083,0,0,1,.284-1.18,0.93,0.93,0,0,1,.8-0.4,0.918,0.918,0,0,1,.8.41,2.1,2.1,0,0,1,.28,1.19v0.24Zm4.666,0.7a0.954,0.954,0,0,1-.268.67,0.989,0.989,0,0,1-.71.22,0.85,0.85,0,0,1-.77-0.37,2.2,2.2,0,0,1-.245-1.18v-0.38a2.085,2.085,0,0,1,.262-1.14,0.877,0.877,0,0,1,.767-0.36,1.017,1.017,0,0,1,.7.21,1.06,1.06,0,0,1,.268.7h1.025a1.872,1.872,0,0,0-.608-1.29,2.018,2.018,0,0,0-1.388-.46,1.978,1.978,0,0,0-1.092.29,1.848,1.848,0,0,0-.723.84,2.952,2.952,0,0,0-.253,1.26v0.31a2.616,2.616,0,0,0,.549,1.76,1.875,1.875,0,0,0,1.5.65,2.119,2.119,0,0,0,1.41-.46,1.765,1.765,0,0,0,.593-1.27h-1.025Z" transform="translate(-345.5 -7529.5)"/>
</svg>
