<svg id="fb" xmlns="http://www.w3.org/2000/svg" width="40" height="40" viewBox="0 0 40 40">

  <path d="M75,40A20,20,0,1,1,95,20,20,20,0,0,1,75,40ZM75,2A18,18,0,1,0,93,20,18,18,0,0,0,75,2Z" transform="translate(-55)"/>
  <path class="fb" d="M78.673,14.808H77.217a1,1,0,0,0-1.188,1.225v1.69h2.542a0.33,0.33,0,0,1,.241.105,0.367,0.367,0,0,1,.1.253v2.891a0.35,0.35,0,0,1-.34.359H76.029v7.291a0.349,0.349,0,0,1-.34.358H72.853a0.348,0.348,0,0,1-.34-0.358V21.332H70.339A0.351,0.351,0,0,1,70,20.973V18.082a0.35,0.35,0,0,1,.34-0.358h2.174v-2c0-2.627,1.57-4.325,4-4.325l2.163,0a0.35,0.35,0,0,1,.339.359V14.45A0.349,0.349,0,0,1,78.673,14.808Z" transform="translate(-55)"/>
</svg>
