<svg xmlns="http://www.w3.org/2000/svg" width="104" height="82" viewBox="0 0 104 82">
  <defs>
    <style>
      .cls-1 {
        fill: #fff;
        fill-rule: evenodd;
      }
    </style>
  </defs>
  <path id="Forma_1" data-name="Forma 1" class="cls-1" d="M642,429.355a10.4,10.4,0,0,1-20.788.383H609.446C602.088,441.644,578.608,450,565.8,450a27.634,27.634,0,1,1,0-55.267c12.806,0,36.29,8.353,43.645,20.261h11.764a10.4,10.4,0,0,1,20.788.385,10.149,10.149,0,0,1-2.77,6.986A10.162,10.162,0,0,1,642,429.355Zm-76.2-31.491a24.5,24.5,0,1,0,0,49c14.084,0,42.769-11.34,42.769-24.5S579.887,397.864,565.8,397.864Zm70.13,23.253a7.136,7.136,0,0,0,2.915-5.739,7.245,7.245,0,0,0-14.49,0,5.48,5.48,0,0,0,.078.783,1.741,1.741,0,0,1-.356,1.335,1.644,1.644,0,0,1-1.178.629H610.975a12.383,12.383,0,0,1,0,8.48H622.9a1.586,1.586,0,0,1,1.188.536,1.567,1.567,0,0,1,.375,1.24,6.952,6.952,0,0,0-.107.974,7.245,7.245,0,0,0,14.49,0,7.117,7.117,0,0,0-2.915-5.738A1.555,1.555,0,0,1,635.933,421.117Zm-78.895-11.788c-0.211.066-4.636,1.513-6.41,7.625a1.584,1.584,0,0,1-1.516,1.131,1.521,1.521,0,0,1-.438-0.063,1.567,1.567,0,0,1-1.078-1.939c2.282-7.847,8.286-9.683,8.541-9.755a1.579,1.579,0,0,1,1.957,1.062A1.559,1.559,0,0,1,557.038,409.329Zm28.127-23.55a1.565,1.565,0,0,1-1.188,2.594,1.574,1.574,0,0,1-1.188-.539,8.12,8.12,0,0,1,0-10.672,4.991,4.991,0,0,0,0-6.56,1.571,1.571,0,1,1,2.376-2.055,8.115,8.115,0,0,1,0,10.67A5,5,0,0,0,585.165,385.779Zm-14.244,0a1.566,1.566,0,0,1-1.189,2.594,1.574,1.574,0,0,1-1.188-.539,8.12,8.12,0,0,1,0-10.672,4.991,4.991,0,0,0,0-6.56,1.557,1.557,0,0,1,.152-2.208,1.573,1.573,0,0,1,2.225.153,8.117,8.117,0,0,1,0,10.67A4.993,4.993,0,0,0,570.921,385.779Zm-14.245,0a1.566,1.566,0,0,1-1.188,2.594,1.578,1.578,0,0,1-1.189-.539,8.12,8.12,0,0,1,0-10.672,4.991,4.991,0,0,0,0-6.56,1.557,1.557,0,0,1,.152-2.208,1.573,1.573,0,0,1,2.225.153,8.117,8.117,0,0,1,0,10.67A4.993,4.993,0,0,0,556.676,385.779Z" transform="translate(-538 -368)"/>
</svg>
