<svg xmlns="http://www.w3.org/2000/svg" xmlns:xlink="http://www.w3.org/1999/xlink" width="35" height="38" viewBox="0 0 35 38">
<defs>
    <style>
      .cls-1, .icon-stroke, .cls-4 {
        fill: #fff;
      }

      .cls-1 {
        stroke: #dcdcdc;
        filter: url(#filter);
      }

      .cls-1, .icon-stroke {
        stroke-linejoin: round;
        stroke-width: 1px;
      }

      .icon-stroke {
        stroke: #e6e6e6;
      }

      .cls-3 {
        fill: #ed1c24;
      }

      .cls-4 {
        fill-rule: evenodd;
      }
    </style>
    <filter id="filter" x="0.5" y="0.5" width="34" height="37" filterUnits="userSpaceOnUse">
      <feOffset result="offset" dy="2" in="SourceAlpha"/>
      <feGaussianBlur result="blur" stdDeviation="3.317"/>
      <feFlood result="flood" flood-color="#ed1c24"/>
      <feComposite result="composite" operator="in" in2="blur"/>
      <feBlend result="blend" in="SourceGraphic"/>
    </filter>
  </defs>
  <g style="fill: #fff; filter: url(#filter)">
    <rect id="Rectangle_61_copy_2" data-name="Rectangle 61 copy 2" class="cls-1" x="10.5" y="8.5" width="13" height="16" style="stroke: inherit; filter: none; fill: inherit"/>
  </g>
  <use xlink:href="#Rectangle_61_copy_2" style="stroke: #dcdcdc; filter: none; fill: none"/>
  <rect id="Rectangle_61_copy_2-2" data-name="Rectangle 61 copy 2" class="icon-stroke" x="8.5" y="3.5" width="18" height="24"/>
  <rect id="Rectangle_61_copy_2-3" data-name="Rectangle 61 copy 2" class="cls-3" x="5.5" y="15.5" width="14.719" height="9"/>
  <path id="pdf" class="cls-4" d="M323.369,7550.39a2.043,2.043,0,0,0,1.386-.43,1.418,1.418,0,0,0,.5-1.15,1.622,1.622,0,0,0-.229-0.86,1.53,1.53,0,0,0-.654-0.58,2.2,2.2,0,0,0-.986-0.21h-1.942v4.98h1.026v-1.75h0.9Zm-0.9-2.4h0.94a0.83,0.83,0,0,1,.594.24,0.806,0.806,0,0,1,.216.59,0.682,0.682,0,0,1-.214.54,0.889,0.889,0,0,1-.62.2H322.47v-1.57Zm5.031,4.15a2.3,2.3,0,0,0,1.172-.3,2.056,2.056,0,0,0,.805-0.84,2.584,2.584,0,0,0,.286-1.23v-0.23a2.591,2.591,0,0,0-.291-1.24,2.1,2.1,0,0,0-.808-0.84,2.3,2.3,0,0,0-1.174-.3h-1.532v4.98H327.5Zm-0.01-4.15a1.09,1.09,0,0,1,.919.4,1.792,1.792,0,0,1,.315,1.15v0.26a1.756,1.756,0,0,1-.325,1.12,1.1,1.1,0,0,1-.92.4h-0.5v-3.33h0.506Zm6.012,1.29h-1.969v-1.29h2.215v-0.83h-3.24v4.98h1.025v-2.03H333.5v-0.83Z" transform="translate(-314.5 -7529.5)"/>
</svg>
