<svg xmlns="http://www.w3.org/2000/svg">
    <defs>
        <style>
        .cls-1 {
            fill: #fc0;
            stroke: #f9b000;
            stroke-linejoin: round;
            stroke-width: 1px;
            fill-rule: evenodd
        }
        </style>
        <style>
        .cls-1 {
            fill: #f9b000;
            stroke: #f9b000;
            stroke-linejoin: round;
            stroke-width: 1px;
            fill-rule: evenodd
        }
        </style>
        <style>
        .cls-1 {
            fill: #efefef;
            fill-rule: evenodd
        }
        </style>
        <style>
        .cls-1 {
            fill: #efefef;
            fill-rule: evenodd
        }
        </style>
        <style>
        .cls-1 {
            fill: #efefef;
            fill-rule: evenodd
        }
        </style>
    </defs>
    <symbol id="chick-full-icon" viewBox="0 0 43 27">
        <path id="Forma_1" data-name="Forma 1" class="cls-1" d="M913.353 602.255a.5.5 0 0 1-.145-.984c4.639-1.4 7.835-5.511 9.746-7.963a8.526 8.526 0 0 1 1.6-1.785 14.833 14.833 0 0 1 2.427-1.1c.481-.185.979-.374 1.493-.6a.862.862 0 0 0 .537-.911 1.415 1.415 0 0 0-1.081-1.207c-.516-.128-.789.15-1.446.989a6.451 6.451 0 0 1-2.056 1.9c-.875.464-2.5.391-4.549.3-3.127-.141-7.014-.317-9.588 1.33a.5.5 0 0 1-.69-.154.505.505 0 0 1 .153-.694c2.842-1.819 6.9-1.634 10.17-1.487 1.747.078 3.4.154 4.039-.182a5.577 5.577 0 0 0 1.735-1.633c.632-.808 1.283-1.643 2.475-1.344a2.4 2.4 0 0 1 1.834 2.1 1.871 1.871 0 0 1-1.127 1.916c-.531.236-1.046.434-1.543.624a14.208 14.208 0 0 0-2.269 1.023 10.278 10.278 0 0 0-1.322 1.543c-1.854 2.38-5.3 6.809-10.244 8.3a.485.485 0 0 1-.149.019zm4.609-11.509a.493.493 0 0 1-.286-.091.5.5 0 0 1-.124-.7 5.725 5.725 0 0 1 1.7-1.575 6.5 6.5 0 0 1 2.177-.721 8.134 8.134 0 0 0 1.785-.506.86.86 0 0 0 .537-.909 1.414 1.414 0 0 0-1.08-1.207c-.516-.13-.791.15-1.448.99a6.488 6.488 0 0 1-2.055 1.9c-.876.461-2.5.39-4.55.3-1.067-.049-2.276-.1-3.477-.08h-.01a.5.5 0 0 1-.01-1.006c1.237-.024 2.459.032 3.541.082 1.751.079 3.4.152 4.039-.182a5.579 5.579 0 0 0 1.735-1.634c.631-.807 1.283-1.641 2.476-1.343a2.4 2.4 0 0 1 1.834 2.1 1.872 1.872 0 0 1-1.127 1.916 9.009 9.009 0 0 1-2 .572 5.587 5.587 0 0 0-1.858.6 4.676 4.676 0 0 0-1.4 1.289.5.5 0 0 1-.399.205zM917.8 605h-17.516a7.314 7.314 0 0 1-7.284-7.321v-.788a10.522 10.522 0 0 1 10.482-10.538h2.726a15.05 15.05 0 0 1 9.6 3.471.5.5 0 0 1 .067.708.5.5 0 0 1-.705.067 14.044 14.044 0 0 0-8.963-3.242h-2.727a9.52 9.52 0 0 0-9.48 9.534v.788a6.309 6.309 0 0 0 6.285 6.32H917.8a2.488 2.488 0 0 0 2.479-2.492 14.235 14.235 0 0 0-.562-3.972.5.5 0 1 1 .959-.281 15.23 15.23 0 0 1 .6 4.253A3.491 3.491 0 0 1 917.8 605z" transform="translate(-890 -581)" />
    </symbol>
    <symbol id="chick-leg-icon" viewBox="0 0 38 32">
        <path id="Forma_1" data-name="Forma 1" class="cls-1" d="M366.555 605a8.765 8.765 0 0 1 0-17.524c4.712 0 14.129 3.787 14.129 8.761S371.267 605 366.555 605zm0-16.531a7.77 7.77 0 0 0 0 15.536c4.333 0 13.159-3.6 13.159-7.768s-8.826-7.768-13.159-7.768zm20.245 13.262a3.24 3.24 0 0 1-3.2-3.156h-3.882a.5.5 0 0 1 0-.993h4.4a.483.483 0 0 1 .365.17.509.509 0 0 1 .116.393 2.172 2.172 0 0 0-.033.309 2.229 2.229 0 1 0 3.561-1.82.5.5 0 0 1 0-.792 2.287 2.287 0 0 0 .9-1.82 2.23 2.23 0 1 0-4.458 0 1.707 1.707 0 0 0 .024.249.568.568 0 0 1-.11.423.5.5 0 0 1-.362.2h-4.4a.5.5 0 0 1 0-.993h3.879a3.2 3.2 0 1 1 6.4.122 3.308 3.308 0 0 0 0 4.432 3.242 3.242 0 0 1-3.2 3.276zm-23.382-5.851a.488.488 0 0 1-.466-.634 4.322 4.322 0 0 1 2.628-3.093.483.483 0 0 1 .6.336.5.5 0 0 1-.325.615 3.378 3.378 0 0 0-1.973 2.418.489.489 0 0 1-.463.358zm8.728-10.42a.48.48 0 0 1-.366-.171 2.635 2.635 0 0 1 0-3.384 1.617 1.617 0 0 0 0-2.08.5.5 0 0 1 .047-.7.473.473 0 0 1 .684.048 2.631 2.631 0 0 1 0 3.383 1.621 1.621 0 0 0 0 2.081.5.5 0 0 1-.046.7.478.478 0 0 1-.318.123zm-4.383 0a.48.48 0 0 1-.366-.171 2.635 2.635 0 0 1 0-3.384 1.617 1.617 0 0 0 0-2.08.5.5 0 0 1 .047-.7.474.474 0 0 1 .684.048 2.631 2.631 0 0 1 0 3.383 1.621 1.621 0 0 0 0 2.081.5.5 0 0 1-.046.7.478.478 0 0 1-.318.123zm-4.383 0a.48.48 0 0 1-.366-.171 2.635 2.635 0 0 1 0-3.384 1.62 1.62 0 0 0 0-2.08.5.5 0 0 1 .047-.7.474.474 0 0 1 .684.048 2.631 2.631 0 0 1 0 3.383 1.621 1.621 0 0 0 0 2.081.505.505 0 0 1-.046.7.478.478 0 0 1-.318.123z" transform="translate(-355 -576)" />

    </symbol>
    <symbol id="fb" viewBox="0 0 40 40">
        <path class="cls-1" d="M75 40a20 20 0 1 1 20-20 20 20 0 0 1-20 20zm0-38a18 18 0 1 0 18 18A18 18 0 0 0 75 2z" transform="translate(-55)" />
        <path class="fb" d="M78.673 14.808h-1.456a1 1 0 0 0-1.188 1.225v1.69h2.542a.33.33 0 0 1 .241.105.367.367 0 0 1 .1.253v2.891a.35.35 0 0 1-.34.359h-2.543v7.291a.349.349 0 0 1-.34.358h-2.836a.348.348 0 0 1-.34-.358v-7.29h-2.174a.351.351 0 0 1-.339-.359v-2.891a.35.35 0 0 1 .34-.358h2.174v-2c0-2.627 1.57-4.325 4-4.325h2.163a.35.35 0 0 1 .339.359v2.692a.349.349 0 0 1-.343.358z" transform="translate(-55)" />
    </symbol>
    <symbol id="ok" viewBox="0 0 40 40">
        <path class="cls-1" d="M20 40a20 20 0 1 1 20-20 20 20 0 0 1-20 20zm0-38a18 18 0 1 0 18 18A18 18 0 0 0 20 2z" />
        <path class="ok" d="M25.337 22.612a9.212 9.212 0 0 1-2.849 1.179l2.747 2.738a1.436 1.436 0 1 1-2.035 2.028l-2.7-2.689-2.7 2.689a1.436 1.436 0 0 1-2.035-2.028l2.745-2.738a9.252 9.252 0 0 1-2.852-1.179 1.436 1.436 0 0 1 1.533-2.428 6.256 6.256 0 0 0 6.616 0 1.435 1.435 0 1 1 1.53 2.428zM20.5 19.8a4.9 4.9 0 1 1 4.911-4.9 4.909 4.909 0 0 1-4.911 4.9zm0-6.926a2.028 2.028 0 1 0 2.032 2.026 2.033 2.033 0 0 0-2.032-2.03z" />
    </symbol>
    <symbol id="vk" viewBox="0 0 40 40">
        <path class="cls-1" d="M130 40a20 20 0 1 1 20-20 20 20 0 0 1-20 20zm0-38a18 18 0 1 0 18 18 18 18 0 0 0-18-18z" transform="translate(-110)" />
        <path class="vk" d="M138.523 19.987a8.14 8.14 0 0 0-1.015 1.421.815.815 0 0 0 .158.88c.128.151.433.449.914.89h.011l.011.011.012.01.022.022a10.965 10.965 0 0 1 2.154 2.4 1.443 1.443 0 0 1 .073.136 1.262 1.262 0 0 1 .079.286.818.818 0 0 1 0 .37.547.547 0 0 1-.283.3 1.351 1.351 0 0 1-.665.135l-2.886.043a1.3 1.3 0 0 1-.631-.054 2.788 2.788 0 0 1-.587-.238l-.225-.131a5.213 5.213 0 0 1-.79-.694c-.3-.313-.558-.592-.772-.842a3.675 3.675 0 0 0-.688-.63c-.156-.108.449-.251.86-.325-.545.064-1.559.181-1.587.2a.905.905 0 0 0-.192.157 1.386 1.386 0 0 0-.242.319 2.15 2.15 0 0 0-.192.565 3.445 3.445 0 0 0-.073.842 1.043 1.043 0 0 1-.04.3.693.693 0 0 1-.084.2l-.045.054a.9.9 0 0 1-.6.239h-1.3a5.3 5.3 0 0 1-1.647-.179 6.422 6.422 0 0 1-1.482-.576q-.637-.352-1.162-.715a6.769 6.769 0 0 1-.8-.625l-.281-.261c-.076-.072-.179-.18-.311-.324s-.4-.475-.806-.988-.8-1.061-1.195-1.639-.851-1.343-1.381-2.291-1.021-1.932-1.471-2.952a.823.823 0 0 1-.062-.303.331.331 0 0 1 .034-.173l.045-.065a.8.8 0 0 1 .643-.206l3.089-.023a1.394 1.394 0 0 1 .259.071.8.8 0 0 1 .181.093l.056.032a.727.727 0 0 1 .271.347c.15.363.323.737.519 1.125s.349.682.461.885l.181.313a12.634 12.634 0 0 0 .631 1.129 5.525 5.525 0 0 0 .547.744 2.651 2.651 0 0 0 .468.418.724.724 0 0 0 .383.152.853.853 0 0 0 .3-.055.173.173 0 0 0 .056-.053 2.118 2.118 0 0 0 .136-.239 1.728 1.728 0 0 0 .152-.51c.034-.21.069-.5.107-.879a8.035 8.035 0 0 0 0-1.357 4.936 4.936 0 0 0-.1-.793 2.085 2.085 0 0 0-.158-.5l-.068-.13a1.4 1.4 0 0 0-.958-.466q-.147-.021.056-.26a1.53 1.53 0 0 1 .428-.327 7.692 7.692 0 0 1 2.7-.26 7.831 7.831 0 0 1 1.523.141 1.361 1.361 0 0 1 .377.146.592.592 0 0 1 .231.261 1.58 1.58 0 0 1 .118.347 2.371 2.371 0 0 1 .04.5c0 .209 0 .409-.011.6s-.017.443-.029.765-.016.622-.016.9c0 .079 0 .232-.011.456s-.01.4-.006.521.017.269.039.441a1.166 1.166 0 0 0 .13.422.732.732 0 0 0 .254.267l.191.044a.431.431 0 0 0 .294-.121 3.958 3.958 0 0 0 .428-.374 5.539 5.539 0 0 0 .586-.727q.35-.494.767-1.168a17.451 17.451 0 0 0 1.207-2.442.732.732 0 0 1 .112-.189.525.525 0 0 1 .124-.115l.045-.032.057-.027.146-.033a.424.424 0 0 1 .226-.005l3.247-.022a1.851 1.851 0 0 1 .722.027.665.665 0 0 1 .349.18l.067.107q.26.7-1.691 3.192l-.734.912z" transform="translate(-110)" />
    </symbol>
</svg>
