<svg id="vk" xmlns="http://www.w3.org/2000/svg" width="40" height="40" viewBox="0 0 40 40">
  <defs>
    <style>
      .cls-1 {
        fill: #efefef;
        fill-rule: evenodd;
      }
    </style>
  </defs>
  <path class="cls-1" d="M130,40a20,20,0,1,1,20-20A20,20,0,0,1,130,40Zm0-38a18,18,0,1,0,18,18A18,18,0,0,0,130,2Z" transform="translate(-110)"/>
  <path class="vk" d="M138.523,19.987a8.14,8.14,0,0,0-1.015,1.421,0.815,0.815,0,0,0,.158.88c0.128,0.151.433,0.449,0.914,0.89h0.011l0.011,0.011,0.012,0.01,0.022,0.022a10.965,10.965,0,0,1,2.154,2.4,1.443,1.443,0,0,1,.073.136,1.262,1.262,0,0,1,.079.286,0.818,0.818,0,0,1,0,.37,0.547,0.547,0,0,1-.283.3,1.351,1.351,0,0,1-.665.135l-2.886.043a1.3,1.3,0,0,1-.631-0.054,2.788,2.788,0,0,1-.587-0.238l-0.225-.131a5.213,5.213,0,0,1-.79-0.694c-0.3-.313-0.558-0.592-0.772-0.842a3.675,3.675,0,0,0-.688-0.63c-0.156-.108.449-0.251,0.86-0.325-0.545.064-1.559,0.181-1.587,0.2a0.905,0.905,0,0,0-.192.157,1.386,1.386,0,0,0-.242.319,2.15,2.15,0,0,0-.192.565,3.445,3.445,0,0,0-.073.842,1.043,1.043,0,0,1-.04.3,0.693,0.693,0,0,1-.084.2l-0.045.054a0.9,0.9,0,0,1-.6.239h-1.3a5.3,5.3,0,0,1-1.647-.179,6.422,6.422,0,0,1-1.482-.576q-0.637-.352-1.162-0.715a6.769,6.769,0,0,1-.8-0.625l-0.281-.261c-0.076-.072-0.179-0.18-0.311-0.324s-0.4-.475-0.806-0.988-0.8-1.061-1.195-1.639-0.851-1.343-1.381-2.291-1.021-1.932-1.471-2.952A0.823,0.823,0,0,1,119.322,16a0.331,0.331,0,0,1,.034-0.173l0.045-.065a0.8,0.8,0,0,1,.643-0.206l3.089-.023a1.394,1.394,0,0,1,.259.071,0.8,0.8,0,0,1,.181.093l0.056,0.032a0.727,0.727,0,0,1,.271.347c0.15,0.363.323,0.737,0.519,1.125s0.349,0.682.461,0.885l0.181,0.313a12.634,12.634,0,0,0,.631,1.129,5.525,5.525,0,0,0,.547.744,2.651,2.651,0,0,0,.468.418,0.724,0.724,0,0,0,.383.152,0.853,0.853,0,0,0,.3-0.055,0.173,0.173,0,0,0,.056-0.053,2.118,2.118,0,0,0,.136-0.239,1.728,1.728,0,0,0,.152-0.51c0.034-.21.069-0.5,0.107-0.879a8.035,8.035,0,0,0,0-1.357,4.936,4.936,0,0,0-.1-0.793,2.085,2.085,0,0,0-.158-0.5l-0.068-.13a1.4,1.4,0,0,0-.958-0.466q-0.147-.021.056-0.26a1.53,1.53,0,0,1,.428-0.327,7.692,7.692,0,0,1,2.7-.26,7.831,7.831,0,0,1,1.523.141,1.361,1.361,0,0,1,.377.146,0.592,0.592,0,0,1,.231.261,1.58,1.58,0,0,1,.118.347,2.371,2.371,0,0,1,.04.5c0,0.209,0,.409-0.011.6s-0.017.443-.029,0.765-0.016.622-.016,0.9c0,0.079,0,.232-0.011.456s-0.01.4-.006,0.521,0.017,0.269.039,0.441a1.166,1.166,0,0,0,.13.422,0.732,0.732,0,0,0,.254.267l0.191,0.044a0.431,0.431,0,0,0,.294-0.121,3.958,3.958,0,0,0,.428-0.374,5.539,5.539,0,0,0,.586-0.727q0.35-.494.767-1.168a17.451,17.451,0,0,0,1.207-2.442,0.732,0.732,0,0,1,.112-0.189,0.525,0.525,0,0,1,.124-0.115l0.045-.032,0.057-.027,0.146-.033a0.424,0.424,0,0,1,.226-0.005l3.247-.022a1.851,1.851,0,0,1,.722.027,0.665,0.665,0,0,1,.349.18l0.067,0.107q0.26,0.7-1.691,3.192Q138.986,19.412,138.523,19.987Z" transform="translate(-110)"/>
</svg>
